<svg xmlns="http://www.w3.org/2000/svg" version="1.1" xmlns:xlink="http://www.w3.org/1999/xlink" xmlns:svgjs="http://svgjs.com/svgjs" width="1446.02" height="2288.01"><svg id="SvgjsSvg1000" data-name="Layer 1" xmlns="http://www.w3.org/2000/svg" viewBox="0 0 1446.02 2288.01">
  <defs>
    <style>
      .cls-1 {
        fill: #f7b4d1;
      }

      .cls-2 {
        fill: #f6e04f;
      }

      .cls-3 {
        fill: #df6b4a;
      }

      .cls-4 {
        fill: #c5bd7a;
      }

      .cls-5 {
        fill: #94959a;
      }
    </style>
  </defs>
  <path class="cls-1" d="m1429.18,1154.51c.9,31.5-9.2,59.8-24.8,86.5-3.2,5.5-6.7,10.9-14.3,11.4-2.2.1-4.4,2.6-6.3,4.3-4.4,4.1-8.3,8.8-12.8,12.6-2.8,2.3-6.9,5.7-9.5,5.1-8.1-1.9-12.7,3-18.1,6.8-36.5,25.5-76.3,44.9-117.2,62.3-75.9,32.4-154,57.4-235.4,72-39.6,7.1-79.6,11-119.7,13.4-60.4,3.6-120.9,3.4-181.3,1-36.4-1.4-72.7-5.2-109-7.3-40.5-2.4-81-4.1-121.5-6-27-1.3-54-1.7-81-3.6-26.7-1.8-52.5-9-77.9-17.4-13.6-4.5-27.3-7.8-41.5-9.8-40.8-5.7-80-18-117.2-35.1-43.9-20.2-75.9-53.3-95.4-97.8-10.5-24.1-20.8-48.4-25.5-74.5-8.4-46.8-2.4-91.7,17-135.3,26.6-59.5,71.3-101.2,126.5-133.4,40.1-23.4,83.5-32.6,129.6-31.6,44,.9,87.8-1.6,131.6-6.7,54.3-6.3,107.3-18.6,158.9-36.5,25.7-8.9,49.5-21.8,72.1-36.8,38.6-25.6,78.4-48.9,120.9-67.4,31.5-13.7,64.1-23.7,98.4-27.1,43-4.4,81.2,6.4,112.9,36.8,7.6,7.3,14.5,15.2,21.6,22.9,21.5,23.1,42.4,46.7,64.5,69.3,24.8,25.3,53.3,46.2,84,64.1,28.6,16.7,59.7,24,92.2,26.8,10.8.9,21.6,2.4,32.4,3.9,18.6,2.7,35.2,10.4,50.4,21.1,41.9,29.5,68.5,69.9,83.8,118.2,9.1,28.4,10.8,58.1,11.6,87.8Z"></path>
  <path class="cls-1" d="m680.48,1086.61c-31.3,2.2-62.2-2.6-93.1-6.6-45.1-5.7-89.9-13.3-133.8-25.2-31.1-8.4-62-17.8-91.6-30.9-14-6.2-29.1-10.1-43.3-15.9-61.4-24.9-112-63.5-149.5-118.7-13.2-19.4-24-40.1-27.6-63.6-4.7-30.8-3.3-61.4,6.9-91.2,12.9-37.7,31.8-71.9,57.5-102.6,22.9-27.4,47.5-53.1,71.8-79.3,23.3-25.1,46.5-50,71.8-73,37.5-34.2,77.4-65.5,118.7-95,73.9-52.9,146.1-108.2,216.9-165.2,19.8-16,41.1-30.3,62.3-44.6,15.3-10.3,32-18,50.3-21.8,15.8-3.3,31.3-2.6,46.7,2.3,28,9,51.4,24.6,68.3,49,31.7,45.6,64.3,90.8,94.2,137.5,37,57.8,82.3,108,132.7,154,18,16.5,36.1,33,53,50.6,14.8,15.4,28.4,32,41.9,48.6,22.4,27.6,36.5,59.4,45.4,93.5,10.1,38.9,19.2,78,22.7,118.2,3.4,39.7-4.9,76.8-25.1,111.3-4.3,7.3-10.8,11.9-16.8,17.5-19,17.4-39.2,32.6-63.2,42.4-33.4,25.1-72.5,37.4-111.5,49.8-62.4,19.8-126,34.3-191.2,41.3-59.3,6.4-118.8,11.8-178.2,17.3-12.1,1.3-24.2.3-36.2.3Z"></path>
  <path class="cls-5" d="m392.08,606.11c-5.1.3-9.5-5.1-7.8-9.2,1.1-2.7,3-5.2,4.9-7.4,7.7-8.7,15.5-17.3,23.3-26,4.7-5.3,9.4-10.7,14.1-16,1.7-1.9,3.5-3.9,5.6-5.4,2.3-1.6,5-1.5,7.5-.1,2.5,1.5,3.8,3.8,3.4,6.6-.3,2.1-1.1,4.4-2.2,6.2-1.6,2.5-3.6,4.8-5.6,7.1-11.2,12.6-22.5,25.1-33.8,37.7-1.7,1.9-3.8,3.7-5.8,5.2-1.2.7-2.8,1-3.6,1.3Z"></path>
  <path class="cls-5" d="m979.48,664.91c-.5,1.4-.9,3.6-2,5.5-8.7,16.1-17.4,32.3-26.4,48.3-1.6,2.9-4.1,5.4-6.6,7.5-3.4,2.9-7.2,2.4-10.1-.5-2.6-2.6-3.2-5.8-.9-9.2,11.1-16.5,19.9-34.3,29.3-51.8,1.4-2.6,3.4-4.9,5.5-6.9,2.1-1.9,4.8-1.7,7.3-.2,2.5,1.5,3.8,3.6,3.9,7.3Z"></path>
  <path class="cls-4" d="m899.88,339.71c0,9,.1,18-.1,27,0,2.6-.4,5.2-1.1,7.7-.8,2.7-3.2,4.2-6,4.3-2.8.1-5.2-1.5-6.1-4.2-.8-2.4-1.4-5.1-1.4-7.6-.2-18.7-.3-37.4-.3-56.2,0-2.5.8-5.2,1.7-7.6.9-2.2,3-3.3,5.4-3.3,2.7,0,5.4,1.6,6,4.1.6,2.1.9,4.4,1,6.6.4,9.7.8,19.4,1.1,29.2h-.2Z"></path>
  <path class="cls-5" d="m423.58,1177.41c-2.8,0-5.1-1.1-6.6-3.5-1.6-2.5-1.5-5,0-7.4,1-1.6,2.1-3.1,3.3-4.5,10.1-12.1,20.2-24.2,30.4-36.2,1.9-2.2,4.3-4.2,6.8-5.8,2.8-1.9,5.9-1.3,8.3.8,2.2,2,3.1,5.3,1.9,8.2-.5,1.4-1.3,2.7-2.2,3.9-11.3,13.5-22.7,27-34.1,40.5-2.1,2.2-4.5,3.9-7.8,4Z"></path>
  <path class="cls-5" d="m1169.18,700.61c-.3,1.4-.9,4.4-1.7,7.2-3.3,12.3-6.5,24.7-10,36.9-.8,2.8-2,5.7-3.6,8.2-1.6,2.6-5.2,3.4-8.1,2.3-2.7-1-4.4-3-4.6-5.8-.2-2.6,0-5.3.7-7.8,3.7-14.2,7.5-28.3,11.4-42.4.4-1.4,1-2.8,1.7-4.2,1.8-3.3,5.3-5.1,8.3-4.6,3.6.8,5.9,4.2,5.9,10.2Z"></path>
  <path class="cls-5" d="m750.78,676.61c-.7,2.3-1.1,4.1-1.8,5.8-7.2,17.3-14.5,34.5-21.8,51.7-.9,2-1.9,4-3.2,5.8-1.6,2.2-4.7,3-7,2.2s-4.3-3.6-3.9-6.2c.3-2.2.8-4.4,1.7-6.5,6.8-16.6,13.7-33.2,20.7-49.7,1.1-2.7,3.1-5.1,5.1-7.2,1.6-1.7,4.3-2.1,6.2-.7,1.6,1.2,2.7,3.2,4,4.8Z"></path>
  <path class="cls-5" d="m898.18,935.41c-.5,1.1-1.1,3.3-2.5,5-8.8,11.1-17.7,22.2-26.8,33.1-2.1,2.5-5,4.5-7.9,6-3.1,1.6-6.8.2-8.9-2.7-1.8-2.5-1.9-5.6.2-8.3,9.9-12.2,19.8-24.3,29.8-36.4,2.2-2.6,4.9-4.6,8.6-4.6,4-.1,7.4,3,7.5,7.9Z"></path>
  <path class="cls-5" d="m148.28,1086.41c-.5,2.3-.7,3.8-1.2,5.2-1.8,4.4-7.9,5.6-11.2,2.1-1-1-1.8-2.4-2.5-3.7-6.3-12.3-12.6-24.6-18.9-36.9-1.2-2.3-2.5-4.6-3.3-7.1-1.3-4.1.2-7.7,3.5-9.7,3.3-1.9,7-.9,9.8,2.7.9,1.2,1.6,2.5,2.4,3.8,5.9,10.8,11.8,21.6,17.5,32.6,1.8,3.8,2.8,7.8,3.9,11Z"></path>
  <path class="cls-5" d="m1026.78,432.61c1.2.4,3.5.8,5.3,2,13,8.9,24.9,19.2,35.3,31.2,1.2,1.4,2.1,3.1,2.7,4.8,1.1,2.9,0,6.1-2.4,8-2.5,2.1-5.4,2.3-8.3.4-1.8-1.2-3.6-2.7-5.1-4.4-8-9.1-17.1-16.8-26.7-24-2.7-2-5.3-4.3-7.1-7-3.1-4.5.1-10.6,6.3-11Z"></path>
  <path class="cls-5" d="m1104.78,927.51c-4.2,0-7.1-1.8-8.1-4.5s-.3-6.4,2-8.2c1.7-1.4,3.7-2.6,5.8-3.4,4.5-1.8,9.1-3.3,13.7-4.8,7.4-2.5,14.9-4.8,22.3-7.3,5-1.7,9-.1,11.1,4.5,1.7,3.7.1,8.2-4,10.4-2.3,1.2-4.8,2-7.3,2.8-10.3,3.2-20.7,6.3-31,9.4-1.8.6-3.7.9-4.5,1.1Z"></path>
  <path class="cls-5" d="m296.48,1204.91c.1,5.2-5.3,8.8-10.2,6.7-1.7-.7-3.4-1.7-4.8-2.9-8.9-7.4-17.7-14.9-26.4-22.5-1.7-1.4-3.1-3.2-4.4-5.1-2.7-4.1-2.2-8.1,1.2-11,3-2.6,6.5-2.4,10.1.7,5,4.4,9.8,9.1,14.9,13.6,5.1,4.4,10.4,8.5,15.5,12.9,3.1,2.7,4,4.7,4.1,7.6Z"></path>
  <path class="cls-5" d="m1342.48,1125.31c.1,4.1-1.5,6.5-4.4,8-2.7,1.4-6,1-8.2-1.4-1.5-1.6-2.8-3.5-3.7-5.5-5-10.8-9.9-21.7-14.6-32.6-1-2.3-1.4-5-1.4-7.6,0-2.8,1.8-4.9,4.5-5.8,2.6-.9,5.2-.6,7.3,1.4,1.3,1.3,2.5,2.8,3.3,4.5,5.5,11.8,10.9,23.7,16.3,35.5.5,1.3.7,2.8.9,3.5Z"></path>
  <path class="cls-5" d="m561.88,648.31c-.5,10.9-1,21.7-1.5,32.6-.1,1.1-.2,2.3-.4,3.3-1.3,5.2-7.8,7.2-11.5,3.5-1.7-1.8-3.2-4.3-3.7-6.7-.7-2.8-.5-6-.3-8.9.5-9.4,1.2-18.7,1.9-28,.1-1.9.4-3.7.9-5.5,1.2-4,4.9-6.6,8.4-6,3.2.5,6,3.2,6.4,6.9.3,3,.1,6,.1,9-.2-.2-.3-.2-.3-.2Z"></path>
  <path class="cls-5" d="m1238.48,1039.81c-2.5-1.7-5-2.7-6.6-4.5-1.9-2.1-1.6-4.9-.2-7.4.7-1.3,1.7-2.5,2.8-3.4,10-7.9,20-15.7,30.2-23.4,2-1.5,4.7-2.2,7.2-2.6,2.7-.5,5.1.7,6.7,3.2,1.6,2.5,1.5,6.2-.5,8.4-1.5,1.6-3.3,3-5.1,4.3-8.3,6.4-16.6,12.8-24.9,19.1-3,2.2-6.2,4.1-9.6,6.3Z"></path>
  <path class="cls-5" d="m444.88,883.71c-1.3,3-1.9,5.6-3.4,7.7-6.6,9.9-13.5,19.8-20.3,29.6-.8,1.2-1.9,2.3-3.1,3.2-2.6,2.1-5.7,2.3-8.3.7-3-1.9-4.4-5.2-3.3-8.7.6-1.7,1.5-3.4,2.5-5,6.7-9.9,13.4-19.8,20.2-29.7.8-1.2,1.8-2.4,2.9-3.3,2.1-1.8,6.4-2.3,8.4-.6,1.9,1.7,3,4.1,4.4,6.1Z"></path>
  <path class="cls-5" d="m1152.98,1192.81c-.1,5.7-5.5,10.4-10.6,7.5-11.1-6.2-22.2-12.3-33.3-18.5-1.6-.9-3.1-2.1-4.4-3.4-2.4-2.4-2.6-6.6-.7-9.3,1.8-2.5,4.9-3.7,7.9-3,.7.2,1.4.4,2.1.7,1.4.6,2.7,1.3,4,2,7.9,4.3,15.8,8.4,23.6,12.8,2.9,1.6,5.9,3.4,8.3,5.7,1.8,1.7,2.5,4.4,3.1,5.5Z"></path>
  <path class="cls-5" d="m296.78,752.31c-.2,1.4-.2,2.5-.4,3.6-1.2,5.1-7.9,7.3-11.5,3.4-1.9-2.1-3.2-5-4.3-7.7-3.5-9-6.8-18.2-10.1-27.3-1-2.8-2.2-5.6-2.9-8.5-.7-2.8,1.3-6.4,3.7-7.6,2.8-1.5,7.1-.8,9.3,1.6,1,1.1,1.9,2.4,2.4,3.7,4.3,10.8,8.5,21.5,12.6,32.3.7,2.2.8,4.5,1.2,6.5Z"></path>
  <path class="cls-5" d="m665.98,982.71c-.1,3.9-1.6,6.4-4.5,7.9-2.6,1.3-6.2.7-8.2-1.6-1.4-1.7-2.6-3.6-3.6-5.6-4.4-9.5-8.7-19-13-28.6-.9-2-1.8-4.2-2.3-6.3-.8-3.4,1-6.7,4.3-8.3,2.7-1.3,6-.7,8.2,1.6,1,1.1,2.1,2.2,2.7,3.5,5.2,11.2,10.3,22.5,15.3,33.7.7,1.4.9,2.9,1.1,3.7Z"></path>
  <path class="cls-3" d="m651.98,407.11c0,6.3.2,12.7-.1,19-.1,2.9-.8,5.9-1.6,8.7-.7,2.5-3.7,4-6.2,3.9s-5.3-2-5.8-4.5c-.6-2.5-1-5.1-.9-7.7.3-12.7.6-25.4,1.2-38,.1-2.5.4-5.4,1.6-7.5.9-1.7,3.3-2.8,5.3-3.5,2.1-.7,5.4,1.6,6.1,4,.6,2.1.9,4.4,1,6.6.1,6.3,0,12.7,0,19h-.6Z"></path>
  <path class="cls-4" d="m802.88,230.71c.2-1.2.4-3.5,1.1-5.6,4.7-12.6,9.4-25.2,14.4-37.7.7-1.9,2.5-3.8,4.3-4.7,4.2-2,9.4,1.8,9.1,6.7-.2,2.5-1,5.1-1.9,7.5-4.1,11.2-8.4,22.4-12.6,33.5-.5,1.4-1,2.8-1.6,4.2-1.6,3.2-4.3,4.8-7.1,4.3-3.4-.4-5.7-3.3-5.7-8.2Z"></path>
  <path class="cls-5" d="m798.98,560.71c1.5.6,4.1,1.3,6.3,2.5,6.2,3.5,12.2,7.2,18.3,10.9,4.2,2.5,8.4,4.8,12.5,7.4,1.9,1.2,3.7,2.6,5.2,4.2,1.8,2,1.9,5.1.3,7.3-1.6,2.3-3.9,3.7-6.7,3.1-2.1-.5-4.3-1.4-6.2-2.5-10.3-6-20.5-12.2-30.7-18.4-1.6-1-3-2.2-4.3-3.5-1.6-1.7-2.2-3.8-1.5-6.2.7-2.4,3.5-4.6,6.8-4.8Z"></path>
  <path class="cls-5" d="m906.68,1245.41c-.6,1.1-1.3,3.6-2.8,4.9-9.2,7.7-18.6,15.1-28,22.5-1.4,1.1-3.4,1.5-5.2,1.8-2.8.4-5.1-.8-6.6-3.3s-1.5-5,0-7.4c1-1.5,2.3-3,3.7-4.2,7.8-6.4,15.6-12.9,23.7-19,2.3-1.7,5.3-2.8,8.1-3.2,3.7-.5,7.3,3.3,7.1,7.9Z"></path>
  <path class="cls-5" d="m1014.48,1110.01c-1.9-1.5-4.3-2.7-5.7-4.6-1.6-2.2-1.2-5.1.3-7.4.8-1.2,1.9-2.5,3.1-3.1,9.6-4.9,19.3-9.7,29.1-14.2,1.9-.9,4.4-.8,6.5-.5,2.8.4,4.5,2.4,5.4,5.1.9,2.8-.1,5.2-2.1,7.1-1,1-2.4,1.8-3.7,2.4-9,4.4-18.1,8.8-27.1,13.1-1.6.8-3.4,1.3-5.8,2.1Z"></path>
  <path class="cls-5" d="m474.58,446.31c1.1.3,3,.6,4.7,1.3,8.4,3.1,16.8,6.2,25,9.6,2.3,1,4.5,2.7,6.3,4.5,2.3,2.2,2.5,5.6,1,8.3-1.4,2.6-3.7,3.6-6.5,3.5-1.8-.1-3.7-.5-5.4-1.1-9.4-3.5-18.8-7.1-28.2-10.7-.3-.1-.7-.2-1.1-.4-4-1.9-5.9-5.2-5-8.9.8-3.5,4.6-6.2,9.2-6.1Z"></path>
  <path class="cls-5" d="m1155.78,541.91c-.4,1.2-.8,3.5-1.9,5.4-5.3,8.7-10.8,17.2-16.2,25.7-.6.9-1.4,1.8-2.2,2.5-3.1,2.7-7.3,2.9-10.3.5-2.7-2.2-3.5-5.6-1.9-9.1.9-2,2.2-3.9,3.4-5.8,4.4-7,8.8-14,13.3-20.9,1.2-1.9,2.6-3.7,4.4-5,2.2-1.6,4.9-1.8,7.5-.6s3.6,3.5,3.9,7.3Z"></path>
  <path class="cls-5" d="m791.98,1132.91c-5.2.3-10.4.7-15.6.8-2.9.1-6,0-8.8-.7-3-.8-4.9-3.9-4.9-6.8s1.5-5,4-6.3c1.6-.8,3.5-1.4,5.3-1.7,9.7-1.4,19.4-1,29.1.2,1.8.2,3.6.9,5.3,1.8,3.3,1.7,4.9,5.1,4.2,8.4-.6,3.2-3.5,5.8-7.3,5.8-3.7.1-7.5-.4-11.2-.6-.1-.5-.1-.7-.1-.9Z"></path>
  <path class="cls-5" d="m1014.18,1288.11c-.5,10.2-2.2,18.6-5.5,26.7-1.6,3.9-3.8,7.3-7.8,9.3-3.2,1.6-6.9,1.1-9.3-1.3-2.1-2.1-3-5.7-1.1-8.3,5.9-7.9,6.8-17.3,8.4-26.5.2-1.1.2-2.2.6-3.3,1-3.4,4.3-5.9,7.4-5.8,3.2.1,6.2,2.8,7,6.3.3,1.4.3,2.9.3,2.9Z"></path>
  <path class="cls-5" d="m678.48,1255.61c.2-2.4.2-3.1.3-3.9.4-3.1,2.7-5.5,5.8-6.1,2.9-.5,5.5.5,6.8,2.8,1.7,2.8,3,6,3.7,9.2,1.7,8,3,16.1,4.5,24.2.2,1.1.2,2.2.1,3.3-.3,2.9-2,4.8-4.5,6-2.6,1.3-5.3,1-7.3-1.1-1.7-1.8-3.6-4.1-4.1-6.4-2.1-9.7-3.7-19.6-5.3-28Z"></path>
  <path class="cls-5" d="m776.38,842.81c-3.3.2-6.7.6-10,.5-1.8-.1-3.7-.7-5.2-1.7-4.3-2.8-3.9-9.9,1-12,3.3-1.5,7.1-2.1,10.8-2.4,6.7-.6,13.4-.8,20.1-1.1h2.2c2.8.2,5,1.3,6.2,4s.6,6.1-1.6,8.3c-2.8,2.8-6.2,4.1-10.1,4.2-4.5.1-9,0-13.4,0v.2Z"></path>
  <path class="cls-5" d="m303.48,1037.51c.1,6-5.4,9.6-10.2,7.3-.7-.3-1.4-.6-2-1-5.8-4.7-11.6-9.3-17.2-14.2-2.3-2-3.4-4.9-2.3-8.1,1-2.9,3.8-5,6.8-4.8,2.1.2,4.6.7,6.2,1.9,5.1,3.7,9.9,7.8,14.8,11.9,1.1.9,2,2.2,2.7,3.5.8,1.3,1,2.8,1.2,3.5Z"></path>
  <path class="cls-5" d="m709.18,2288.01c-69.4-1.2-137.7-11.2-205.8-23.3-38.8-6.9-77.7-13.2-116.2-21.7-76-16.8-149.9-40.5-220.6-73.7-10.5-4.9-21.1-9.9-31.7-14.6-5.4-2.4-7.6-6.1-8.3-12-4.7-38.4-9.8-76.7-14.8-115.1-6.4-49.5-12.8-99-19.2-148.6-7.1-55.1-14.3-110.2-21.4-165.3-6.4-49.2-12.7-98.3-19.1-147.5-7.2-55.5-14.4-111-21.6-166.4-7.1-55.1-14.2-110.2-21.5-165.3-2.8-21.2-6.2-42.3-8.9-63.6-.4-2.9.7-6.7,2.4-9.1,3.8-5.4,7.6-5.5,11.9-.4,6.5,7.7,12.7,15.8,18.6,24,11.6,16.2,22.9,32.6,34.5,48.8,6,8.4,6.2,8.2,15,2.5,12.6-8.1,25.3-16.2,38.1-24.1,13.2-8.3,18.2-6.9,25.7,7.1,11.9,22.6,23.5,45.3,35.5,67.8,7.1,13.4,4.8,12.7,18.9,6,17.7-8.3,35.6-16,53.5-23.8,8.5-3.7,14.9-1.7,20.4,6.4,5.4,8.1,10.3,16.6,15.4,24.9,7.8,12.8,15.5,25.7,23.4,38.5,4.9,8.1,5,8,13.5,2.5,12.6-8.2,25.2-16.4,37.9-24.4,4.1-2.6,8.4-4.9,12.7-7.3,8.6-4.7,16.9-3.9,23.9,2.8,8.9,8.6,17.6,17.4,25.6,26.9,9.7,11.5,18.7,23.5,27.7,35.5,3.7,5,6.8,5.4,11.9,1.9,12.7-8.6,25.9-16.7,38.9-24.9,3.5-2.2,7-4.4,10.7-6.2,8-4.1,10.5-3.5,16.5,3.4,2.7,3.1,5.1,6.5,7.7,9.7,10.5,12.3,21.2,24.3,31.6,36.7,3.9,4.6,7.6,5.3,12.6,2,10.4-6.8,20.8-13.5,31.4-19.9,7.4-4.4,14.9-8.7,22.7-12.3,9.2-4.2,18.3-3.1,26.5,3.2,16.1,12.3,32.4,24.4,48.2,37.1,4.4,3.5,6.9,2.5,10.6-.4,13.2-10.5,26.6-20.8,40.1-31.1,5.4-4.1,10.7-8.3,16.5-11.6,2.9-1.6,7.1-2.3,10.4-1.7,22.5,3.9,41,16,58.8,29.4,4.5,3.4,8.6,7.3,12.6,11.3,3.2,3.3,5.5,2.8,8.2-.7,8.8-11.3,17.6-22.4,26.6-33.6,4.5-5.6,9.1-11,13.8-16.4,6.2-7.2,13.6-8.5,22.3-5.1,28.3,11.1,56.7,21.8,84.9,33.3,6.1,2.5,9.3,1.4,13.2-3.5,12.9-16.6,26.3-32.9,39.4-49.3,2.6-3.2,5-6.6,7.7-9.7,6.3-7.3,9.9-8,18.6-3.3,7,3.7,13.6,7.9,20.4,11.9,9.1,5.3,18.3,10.3,27.3,15.7,11.9,7.1,11.3,8.3,20.3-4.3,13.6-18.9,26.7-38.1,40-57.2,2.8-4,5.2-8.3,8-12.2,7.7-10.9,11.4-11.9,23.6-5.9,11.8,5.7,23.5,11.8,35.2,17.8,2,1,4.1,1.9,6,3.2,4.3,3,6.4,1.3,8-3.2,4.5-12.8,9.1-25.4,13.9-38.1,2-5.3,4-10.6,6.4-15.6,6.2-12.8,12.5-15.9,26.4-11.8,11.1,3.3,22,7.5,32.9,11.7,9.1,3.5,9.1,3.8,15.8-3.9,16.3-18.7,32.5-37.4,48.5-56.3,2.8-3.3,5-4.7,9.5-2.9,4.5,1.7,7.1,4.2,6.7,9-.7,7.1-1.4,14.2-2.5,21.3-11.7,75.3-23.8,150.5-35.3,225.8-10.6,69.8-20.6,139.6-30.8,209.5-10.1,69.5-20.1,139-30.2,208.4-10.1,69.5-20.4,138.9-30.6,208.4-4,27.1-8,54.2-11.7,81.4-.7,5.2-2.3,8.7-6.9,11.9-68.9,47.7-144.4,81.8-225.1,103.2-37.2,9.9-75.7,15.9-113.9,21.5-56.8,8.4-113.8,15.7-170.8,22-26.4,2.7-52.8,2-79,2.9Z"></path>
  <path class="cls-2" d="m194.98,2107.51c-1-13.4-3-26.9-2.7-40.3.7-28.1,2.9-56.2,3.9-84.3.3-9.6.7-19.9-2.1-28.9-7.6-24.9-12.7-50.1-16.7-75.8-1.6-10-4.2-19.8-7.4-29.4-6-17.9-7.2-36-4.3-54.5,3.5-22.9,2.5-45.4-2.8-68.1-3.7-16-4.6-32.6-6.3-49-1-10.4-4-19.9-10.2-28.2-12.1-16.4-16.3-35.1-17.5-55-.7-12.3-2.1-24.7-3.8-36.9-2.2-15.3-2.5-30.6-1-46,1.8-18.6-.5-36.3-8.7-53.7-4.8-10.3-6.2-22.2-9-33.5-2.9-12-5.7-24-8.5-36-3-12.7-6.6-25.4-8.9-38.3-1.7-9.4-3.9-18.3-9-26.4-7.8-12.4-8.4-25.3-3.4-38.8,2.1-5.6,3-11.6,4.8-17.2.6-1.8,2.6-3.1,3.9-4.7,1.7,1.7,4.4,3.3,4.7,5.2.5,3.2-.3,6.7-1.2,9.9-1.2,4.3-3,8.5-4.4,12.8-2.9,9-2.7,17.9,2.5,26,7.4,11.4,9.9,24.1,12.2,37.1,1.9,10.7,5.1,21.1,7.7,31.6,2.9,12,6.3,23.9,8.4,36.1,2.2,12.6,4.3,25.2,10.2,36.7,7.4,14.5,9.6,29.8,8.3,45.9-1.5,19.5-1.7,38.9,1.6,58.4,2.5,14.8,3,29.9,4.4,44.8,1.1,11.8,4.6,23,11.8,32.4,11.3,14.8,14.4,31.7,15.7,49.7.9,12.7,2,25.6,5.2,37.8,6,22.7,5.9,45.3,2.7,68.1-2.4,16.6-1.3,32.7,3.2,49,5.3,19.5,8.6,39.5,13.1,59.3,3,13.2,5.8,26.4,9.8,39.2,4.5,14.3,5.7,28.4,4.5,43.3-1.4,17.2-.9,34.5-2.4,51.6-1.5,17.6-2.1,35.1.2,52.8,1.3,9.6-.2,19.5-.1,29.2,0,5.2-.3,10.5,4,14.8,1.1,1.1,1,5.3.4,5.6-2.1.9-6,1.7-6.8.7-2.7-3.3-5.4-7.3-6-11.4-1-7-.3-14.2-.3-21.4-.1-.2.1-.2.3-.2Z"></path>
  <path class="cls-2" d="m288.38,2147.11c1.5-21.9-.1-43.3-6.6-64.6-3.2-10.6-3.3-22.2-4.2-33.4-1-13.8-1.8-27.7-1.9-41.6-.1-19.9.7-39.8.6-59.6-.1-14.6.1-29.4-1.9-43.7-4.8-33.8-10.5-67.5-19.3-100.6-6.1-23-6.1-46.9-6.5-70.5-.3-15.6-2.9-30.6-9.9-44.7-6.5-13-8.9-26.9-10.6-41.2-1.2-10-2.8-20.2-5.8-29.8-4.5-14.2-6.6-28.5-6.1-43.3.4-14.5-1.5-28.5-7-41.9-4.9-11.9-5.3-24.2-2.2-36.5,4.6-18.1,5-36,1.1-54.5-3-14.2-3.3-29-4.4-43.6-.9-12.1-3-23.9-8.3-34.8-6.5-13.5-2.3-25.7,4.9-37.2,1.2-1.9,5.2-3.8,7.1-3.2,3.9,1.3,2.2,4.7.9,7.5-1.6,3.4-3.2,6.8-4.8,10.2-2.6,5.8-2.9,11.7,0,17.4,7.9,15.9,9,33.2,10.6,50.4,1.3,14.2,2.6,28.4,5.1,42.4,2.3,12.9,2.1,25.5-1.2,37.9-4.4,16.5-3.9,32.1,2.2,48.5,4.1,10.9,4.9,23.5,5.2,35.4.3,15.2,2.1,29.7,6.4,44.3,3.7,12.5,4.3,25.9,7,38.7,2,9.5,4.1,19.2,8.1,27.9,7.4,16.1,11.3,32.7,11.1,50.2-.4,34.5,6.1,67.8,13.7,101.2,7.7,33.9,14.9,68.3,14.7,103.5-.1,18.8-2,37.5-1.9,56.3.1,21,1.3,42,2.6,63,.5,8.6,1.6,17.4,4.3,25.4,6.3,18.9,7,38.2,6.2,57.9-.5,11.2-.4,22.5-.1,33.8.1,4.8,1.8,9.5,2.2,14.2.2,2.2-1.2,4.4-1.9,6.7-2.5-1.1-5.8-1.5-7.2-3.4-1.6-2.2-2-5.6-2.1-8.6-.3-12.1-.1-24.1-.1-36.1Z"></path>
  <path class="cls-2" d="m1328.68,1470.01c-1.8-17.2.8-36.4,6.4-55.3,8-27.1,13.7-54.6,14.2-83,.3-16.3,4.5-31.9,10.4-47,4.1-10.5,7.7-21.2,11.3-31.8,1-3.1,2.3-6.5,5.8-5.1,1.7.7,2.9,4.6,3,7.2.2,2.5-1.2,5.1-2,7.5-2.5,7.1-4.8,14.2-7.7,21.2-7.4,17.9-11.5,36.4-11.9,55.8-.5,24.9-5.8,49.2-12.7,73-5.5,18.9-8.5,37.9-7.6,57.7.6,14.2-1.3,28.4-2.1,42.7-.2,4.1-1,8.3-.8,12.4,1.4,29.2-3.9,57.5-10.1,85.8-2.4,10.9-3.8,22.3-3.5,33.5.5,20.8-1.2,41.2-4.5,61.6-1.8,11.7-2.3,24-1.3,35.8,1.3,15.3.2,30-4.1,44.5-7,23.6-9.6,47.6-10.3,72.2-.5,17.9-3.8,35.7-6.3,53.5-2.3,16-4.9,31.9-7.9,47.7-2.7,14-6.5,27.7-9,41.7s-5,28.1-5.8,42.2c-1,15.7.1,31.4-.3,47.2-.2,9.3-1.5,18.7-2.4,28-.3,3.3-2.3,6.2-5.8,5.1-1.6-.5-2.5-3.9-3.4-6.1-.4-.9.1-2.2.3-3.3,2.2-13,1-26.1,1.1-39.2.2-26.1-.4-52.6,7.7-78.1,5.5-17.2,7.7-35.1,10-53,2.7-20.4,7.8-40.5,11.1-60.9,1.6-10.3,2.1-21,2-31.4-.3-20.5,2.2-40.5,8.1-60,5.6-18.6,7.6-37.3,5.3-56.7-1.1-9.5.5-19.4,1.4-29.1,1.3-13.4,4.6-26.8,4.4-40.2-.3-26.1,2.3-51.6,7.9-77,3.4-15.3,4.5-31.1,5.9-46.8,1.6-18.3,2.4-36.7,3.4-55,0-5-.2-9.9-.2-17.3Z"></path>
  <path class="cls-2" d="m1188.78,2167.31c1.6-17.7,3.6-33.4,4.2-49.1.7-19.1-.1-38.2.2-57.3.1-10.5.9-21,1.6-31.4.5-7.9,2.1-15.7,1.8-23.5-.5-15.3,2.6-29.7,7.1-44.2,2.9-9.2,4.3-19,6.1-28.5,2.3-12.1,3.8-24.4,6.7-36.4,3.8-15.8,6.1-31.9,4.8-48-3-37.1,1.3-73.4,8.8-109.6,2.7-12.9,5.5-25.8,6.8-38.8,1.1-11.1,1.5-22.6,0-33.6-2.5-18.6-1.8-36.7,3.7-54.6,1.9-6.1,3.5-12.3,5.7-18.3,7.1-20,10.1-40.6,11.7-61.7,1.5-20.6,4.4-41,7.5-61.4,3-19.2,2.6-38.3-.8-57.2-3.6-20-2.6-39.5,3-59,4-14.1,7.3-28.3,10.8-42.5.3-1.1.1-2.5.8-3.2,1.1-1.2,2.8-2.9,4.2-2.8,1.3.1,3.5,2,3.6,3.3.3,3.3.1,6.8-.6,10-4.1,16.8-9.1,33.3-12.3,50.3-2,10.5-3.1,21.9-1.4,32.3,4.8,29.3,4.5,58.1-.4,87.4-3.3,19.2-3.7,38.8-6.5,58.1-2.1,14.8-5.5,29.4-9,44-2.9,12.4-7.6,24.4-10,36.9-1.8,9.1-2.7,18.8-1.3,27.9,3.9,25.4,1.3,50.1-4.1,74.9-7.4,34.2-12.6,68.6-11.6,103.8.4,15,2.1,30.5-1,44.8-6.5,29.6-8,60.2-17.4,89.3-3.6,11.1-5.4,22.5-5.2,34.3.2,9.3-1.7,18.7-2.1,28-.6,14.2-.8,28.4-1.2,42.7-.6,21-1,42-1.9,62.9-.5,10.5-1.6,21-3,31.4-.3,2-2.6,5.2-4.3,5.4-3.7.5-4.7-2.8-4.9-6-.1-1.1,0-1.8-.1-.6Z"></path>
  <path class="cls-2" d="m386.58,2167.41c-.8-13.5-1.7-27-2.3-40.5-.3-7.9.1-15.8-.3-23.6-.6-13.9-1-27.8-2.5-41.5-2.6-23.9-5.9-47.6-9-71.5-.3-2.6-.4-5.3-1.1-7.8-7.5-26.5-11.2-53.5-12.4-81-.4-9.6-3.4-19.2-5-28.8-2.3-14-4.6-28.1-6.5-42.1-1.4-10.4-1.2-21.1-3.3-31.3-5.5-26.2-5.2-52.2,1.3-78.1,5-19.7,4.2-39.3,1.6-59.3-2.4-18.2-3.6-36.6-3.9-55-.5-25-3.2-49.5-11.4-73.1-6.4-18.3-8.6-37.2-8.7-56.5,0-17.3.2-34.5-5.1-51.3-3.2-10.4-.9-20.8,1-31.2,1.4-7.6,5.4-15,2.4-23.1-.4-1.1,1.1-4.1,2.2-4.4,1.9-.5,4.7-.2,6,1,1.4,1.3,2.1,4,2.1,6,0,4.1-.2,8.4-1.3,12.3-5,17.4-5.3,34.5-.1,52.1,2.4,8.1,2.2,17.1,2,25.7-.5,25.4,2.3,50.1,10.7,74.2,8.2,23.7,8.9,48.6,9.7,73.4.6,16.5,1.2,33.1,3.8,49.4,3.7,23.5,2.2,46.4-3,69.3-4.3,18.6-4.9,37-1.8,55.9,2.6,15.9,3.2,32.1,5.2,48.1,1.4,11.1,2.9,22.4,5.7,33.2,4.4,17.2,6.8,34.6,7.3,52.3.3,9.7.7,19.8,3.2,29,6.4,23.3,9.8,46.9,11.7,71,1.5,18.3,5.5,36.4,7.7,54.6,1,8.5.6,17.2.8,25.9.3,11.3.8,22.5.9,33.8.2,18,.1,36,.4,54.1.1,6.6-1.1,13.5,3.3,19.6,1,1.4-.1,4.5-.3,6.8-2.5-.3-6.3.2-7.1-1.2-2.2-3.7-4.2-8.1-4.5-12.3-.6-11.2-.2-22.5-.2-33.8.4-.3.6-.3.8-.3Z"></path>
  <path class="cls-2" d="m596.68,2177.51c1.4-17.4-1.1-34-6-50.3-1.2-3.9-1.8-8.1-2.3-12.1-2.4-20.1-5.4-40.2-6.5-60.4-.6-10.3,1.3-21,4.1-31,4.3-15.4,6.6-30.7,5-46.7-.5-5.2-.4-10.6.4-15.7,2.6-17.5-.5-34.2-4.1-51.3-5.8-27.1-10.7-54.5-14.8-81.9-1.3-8.7.4-17.9,1.7-26.8,1.2-7.8,3.7-15.3,5.8-22.9,4.5-16.3,4.6-32.6,1-49.1-4-18.4-6.5-37-5.7-55.9,1-23-1.8-45.8-5.5-68.4-2.3-14-1.5-27.7,2.3-41.3,2.6-9.4,5.2-18.8,8-28.2,5.7-19.2,5.9-38.5.8-57.8-2.3-8.7-5.3-17.3-6.6-26.2-1.5-10.3-1.8-20.8-2-31.2,0-1.7,3.1-3.4,4.8-5.1,1.6,1.7,3.3,3.4,4.8,5.2.4.5.2,1.5.1,2.2-3.3,15,1.3,29.1,5.6,43.1,8.4,27.5,8.4,54.7-1.1,81.9-1.1,3.2-1.7,6.6-2.8,9.7-6.3,17.8-7.2,36-3.5,54.4,3.9,19.3,4.8,38.8,4.3,58.3-.5,19.3,1.5,38.2,5.8,57,4.6,19.9,3.8,39.7-2.6,59-6.9,21-6.8,41.5-2.7,63.2,4.4,23.6,7.8,47.4,14.4,70.5,1.1,3.9,2.2,8.2,2,12.2-1.6,30.2,3.2,60.7-5.5,90.5-4.4,14.9-6.4,29.8-2.5,45.5,2.2,9,1.4,18.7,2.8,27.9,2.7,17.8,6.1,35.4,9.2,53.1.6,3.3,1.3,6.7,1.2,10.1-.9,31.2,4,62.1,6.1,93.1.1,1.7-1.6,3.6-2.5,5.4-2.2-1.1-4.5-1.8-6.4-3.3-.9-.7-1-2.8-1.1-4.2-2.2-24.2-4.1-48.5-6-72.5Z"></path>
  <path class="cls-2" d="m495.78,2214.61c-.5-6.7-1-13.5-1.4-20.2-1.7-28.1-3.7-56.1-9.1-83.9-2.9-14.9-2.4-30.7-1.9-46,.8-21.8,2-43.5-.3-65.2-1.6-14.5-1.3-29.3-2.6-43.8-1-11.2-2.9-22.3-5.3-33.3-2.8-13-3.5-25.8-3-39.1.6-15.3-.3-30.7-1.1-46.1-1.1-21-2.5-42-4-62.9-.7-10.1-1.9-20.2-2.9-30.2-2.1-20.5-5.1-41-6.3-61.5-1.7-27.7-2.3-55.5-2.8-83.3-.2-10.5.7-21,1.8-31.4,1.7-15.8,1.9-31.4-2.2-46.9-3.3-12.4-4.1-25.1-2.4-38,1.7-13,2.1-26.1-.6-39.2-2.8-13.5,1.1-26,7.5-37.9,1.6-3,3.6-6.5,7.7-4.4,4.3,2.3,1.8,5.8.5,8.8-1.6,3.8-3.9,7.5-4.7,11.4-1.2,6.5-1.9,13.3-1.9,19.9,0,13.8,1.3,27.7.7,41.5-.5,12.1-.8,24.1,2.3,35.8,4.5,16.6,3.7,33.4,2.4,50.3-1.1,14.2-1.4,28.5-1.2,42.7.2,17.3,1.7,34.5,1.7,51.8,0,26,2.4,51.7,6.3,77.4,2.8,18.1,3.4,36.6,4.9,54.9,1.5,18.7,3,37.4,4,56.2.5,10.5.5,21-.1,31.5-.8,12.9.1,25.4,2.9,38,2.5,11.3,4.2,22.9,5,34.4,1.8,27.3,3.2,54.7,4.1,82.1.4,11.6-.6,23.3-1.3,34.9-1,15.9,1.1,31.4,3.6,47,3.1,19.2,5.2,38.7,6.7,58.1,1.2,15.3.9,30.7,1.4,46.1.2,5.7.4,11.2,5.6,15.3,1.2.9.7,3.9,1.1,5.9-2.4.2-6,1.4-7,.3-3.2-3.4-6.7-7.3-7.7-11.6-1.5-6.1-.9-12.6-1.2-19,.1-.4.5-.4.8-.4Z"></path>
  <path class="cls-2" d="m743.18,2105.71c-1.2,17.6-2.4,35.2-3.7,52.8-1.3,17.4,1.1,34.4,3.1,51.6,1.8,16,1.5,32.2,1.8,48.3,0,1.7-2.8,3.5-4.4,5.3-1.5-1.8-3.1-3.6-4.5-5.5-.4-.5-.2-1.5-.1-2.2,1.4-23-2.8-45.6-4.7-68.4-1.4-16.7.5-33.7.9-50.6.5-19.1,1.1-38.2,1.5-57.3.1-3.3-.5-6.7-1.2-10-5.5-26.6-7.2-53.4-5.8-80.6,1.2-24-.8-48-.3-72.1.4-24.7,1.1-49.6,3.4-74.2,2.7-28.6,2.8-57-2.9-85.2-6.1-30.2-5.1-60.6-4-90.9.8-20.8-.5-41.4-7.6-61.1-7-19.4-7.3-38.9-3.2-58.8,4.2-20.5,4.9-40.7-.2-61.4-4.7-19-.7-38.1,4.7-56.6.6-2,3.4-3.3,5.1-5,1.1,2.4,3.4,4.9,3.2,7.2-.7,6.3-3.2,12.5-3.6,18.8-.7,11.2-2.5,22.9-.2,33.5,4.6,21.1,4.8,41.7.6,62.6-4.1,20.3-3.9,40.2,3.3,59.9,7,19,8.4,38.9,7.1,58.9-2.3,36.2-.2,72,6.4,107.7,3.8,20.5,3.8,41.2,1.4,61.8-4.2,35.6-5.1,71.1-3.3,106.8.9,17.2.3,34.6-.6,51.8-1.4,24.6,1,48.7,5.3,72.8,2.4,13.2,2.7,26.8,3.9,40.2-.6-.1-1-.1-1.4-.1Z"></path>
  <path class="cls-2" d="m990.38,2229.51c4.3-17.4-1.5-32.9-1.2-48.5.4-25.9.2-51.8,1.7-77.7,1.2-21,3-42-.9-62.9-3.5-18.8-2-37.4,1-56,4.2-26.3,7.4-52.7,8.6-79.4.8-17.9,4.3-35.7,7.4-53.5,2.4-14.1,5-28.1,3.5-42.5-2.6-24.9,0-49.5,2.7-74.1,1.3-11.9,2.5-24.1,1.5-35.9-2.1-25,.5-49.4,5.9-73.8,3.6-16.3,4-32.7-.8-49-5.6-18.8-5.2-37.9-1.9-56.9,3.3-19.2,3.1-37.9-3.5-56.6-2.4-6.7-2.3-15-1-22.1,2-11,5.9-21.7,9.4-32.4.6-1.9,3.5-3,5.3-4.4,1.1,2.1,3.1,4.2,3.1,6.4.1,2.9-1.3,5.8-2.1,8.7-2.1,7.2-5.2,14.3-6.2,21.6-1,6.8-1.4,14.6.8,20.9,6.4,18.3,7.1,36.9,3.9,55.6-3.6,21.1-3.7,41.7,2.4,62.4,5.6,19,2.1,38.1-2,56.8-4,18.5-4.9,37-4.6,55.9.3,19.8-1.6,39.7-2.3,59.6-.7,17.2-2.2,34.5-1.4,51.7.7,17.4-.6,34.4-3.6,51.5-3.2,18.5-5.2,37.1-7.4,55.7-3.1,26.1-5.5,52.2-9,78.3-2.3,17.3-3.6,34.4-.3,51.6,3.9,20.5,2.7,41.1.9,61.8-2.5,28.9-3.7,57.7-1.4,86.7.9,10.8,1.7,21.7,2.1,32.5.1,3.2-.7,6.8-2.2,9.6-.9,1.6-4.1,2.6-6.2,2.6-1-.3-1.9-3.6-2.2-4.2Z"></path>
  <path class="cls-2" d="m1119.58,1945.61c-5-22.8-.8-43.6,2.3-64.4.5-3.3,1.1-6.7.9-10.1-1-20.5,3.4-40.2,7.3-60.2,2.2-11.3,2.7-23.1,2.3-34.6-.6-17.4.4-34.5,3.1-51.6,2.7-17.1,3.7-34.3,1.8-51.6-2-18.6,2-36.6,5.1-54.8,2.5-14.7,6.9-29.5,3.3-44.6-6.4-27.1-5.4-54.3-3.4-81.8.7-9.6-.8-19.5-2.4-29.1-2.5-15.1-2.4-29.8,2.4-44.5,4.1-12.4,8.9-24.8,8.2-38.3-.1-1.7,2.7-3.6,4.2-5.3,1.4,1.5,4.1,3,4.1,4.5.2,6.3.4,12.8-.9,19-1.9,9.1-5,18.1-7.8,27-3.2,10.3-3.7,20.8-1.7,31.2,3.1,16.4,3.9,32.8,2.5,49.3-1.7,20.7-1.6,41.2,3.4,61.6,3.5,14.1,1.5,28.3-.7,42.5-2.8,18.1-7.3,36.5-6.6,54.6,1.2,28.4-1.2,56.2-5.1,84.1-1,7.4-.7,15-.1,22.5,1.6,17.4-.1,34.5-4.3,51.4-3.8,15-5.8,30.1-5.7,45.7.1,9.3-1.1,18.7-2.6,28-2.1,13-3.3,26-1.9,39.2,1.4,13.1,1.4,26.3-3,39-7.9,23.1-9.4,47-10.4,71.1-.9,22.9-.6,45.8-2.3,68.6-1.9,25.8-5.3,51.5-8.2,77.2-.4,3.2-1.5,6.6-3.1,9.4-.7,1.2-3.9,1.7-5.7,1.3-1-.2-2.2-3-2.1-4.5,2.9-25.7,6.3-51.3,9-77.1,1.3-12.7,1.7-25.4,2.1-38.1,1-37.1.3-74.4,11.5-110.5,2.7-8.9,3.2-18.4,4.5-26.1Z"></path>
  <path class="cls-2" d="m855.98,2195.01c-1.1-13.5-3-27.4-3.2-41.2-.5-30.9,3.2-61.4,9.1-91.7,2.3-12,2.8-24.6,2.4-36.9-.7-23-.3-45.8,3.1-68.5,2.5-16.5,1.6-32.7-1.8-49.2-2.4-11.6-2.5-23.9-2.2-35.8.6-18.4,1.5-36.8-1.8-55-2.7-14.6-1.5-29.2.7-43.7,3-19.6,2.5-38.9-1.6-58.2-4.2-19.3-3.8-38.7-2.8-58.3.8-14.1.5-28.6-1.7-42.6-2.9-18.5-2.9-36.6,1.8-54.7,1.8-6.9,3.3-13.9,5.1-20.8,4.1-16.8,4.4-33.3-1.8-49.8-5.8-15.3-2.7-30.3,3.3-45,.7-1.7,1.8-3.4,3.2-4.5,1-.8,3.1-1.5,4-1,1.3.9,2.8,2.8,2.8,4.2,0,2.1-1.1,4.3-1.9,6.3-5.6,13.8-6.7,27.5-1.2,41.7,6.5,16.8,4.4,34,.6,51-1.3,5.9-2.6,11.7-4.2,17.5-4.9,17.7-6,35.3-2.1,53.5,3.4,15.9,2.5,32,1.6,48.2-.8,14.5-1.2,29.5,1.4,43.7,4.8,26.2,6.1,52,2,78.4-1.4,9.1-1.5,18.8-.2,28,3.2,22.5,2.7,44.9,2,67.4-.3,10,.5,20.3,2.7,30.1,3.7,16.5,3.9,32.9,1.5,49.3-3.5,23.9-3.7,47.8-2.9,71.9.5,14.5-1.4,29.3-4.1,43.6-6.6,34.5-9.4,69.1-5.6,104.1,2.4,22.5-.3,44.9-2.6,67.3-.3,3.2-1.2,6.6-5,5.7-1.7-.4-4-3.8-3.9-5.7.7-8.1-1.2-16.1,1.3-24.3,2.1-7.8,1.4-16.4,2-25Z"></path>
  <path class="cls-5" d="m1034.18,261.61c0,55.9-14.1,101.1-37.8,144.1-20,36.5-48.1,64.8-82.2,88-19.6,13.4-41.3,21.2-64.2,26.1-30.2,6.5-60.9,9.3-91.7,8.4-22.5-.7-44.9-3.6-66.6-10.2-10.8-3.3-21.7-5.9-32.5-9.3-46.8-15-87.7-38.9-118.5-78.2-20.9-26.7-35.4-56.8-42.2-90-6-29.1-8.8-58.7-6.8-88.5,1.7-25.4,8.6-49.5,19.2-72.6,1.4-3.1,3.3-6,4.1-9.2,3.6-14.6,11.8-26.7,20.6-38.4,17.3-22.8,34.9-45.4,57.2-63.4,25.8-20.8,53.4-39,84.3-51.4,40.3-16.2,82-19.9,125-15,28.7,3.3,56.2,10.7,81.9,23.3,68.9,33.7,116.5,86.1,137.8,160.7,7.9,26.9,12.9,54.2,12.4,75.6Z"></path>
</svg><style>@media (prefers-color-scheme: light) { :root { filter: none; } }
</style></svg>